<mxfile host="app.diagrams.net" modified="2023-02-25T10:54:06.476Z" agent="5.0 (Macintosh; Intel Mac OS X 10_15_7) AppleWebKit/605.1.15 (KHTML, like Gecko) Version/16.2 Safari/605.1.15" etag="i1XCjLrDzkfUzzoaqYCq" version="20.8.23" type="github">
  <diagram id="-Yv0KU5_5GxbCI-0QOoM" name="Page-1">
    <mxGraphModel dx="649" dy="347" grid="0" gridSize="10" guides="1" tooltips="1" connect="1" arrows="1" fold="1" page="1" pageScale="1" pageWidth="827" pageHeight="1169" math="0" shadow="0">
      <root>
        <mxCell id="0" />
        <mxCell id="1" parent="0" />
        <mxCell id="oqM5t_CYiPmyMkyuLxZC-27" style="edgeStyle=orthogonalEdgeStyle;rounded=0;orthogonalLoop=1;jettySize=auto;html=1;exitX=0.25;exitY=1;exitDx=0;exitDy=0;entryX=0;entryY=0;entryDx=0;entryDy=0;" edge="1" parent="1" source="22" target="hderS7r2cAIFAvsGlZWt-30">
          <mxGeometry relative="1" as="geometry">
            <Array as="points">
              <mxPoint x="316" y="117" />
              <mxPoint x="316" y="138" />
            </Array>
          </mxGeometry>
        </mxCell>
        <mxCell id="22" value="Buzz entities&amp;nbsp;(database)" style="shape=partialRectangle;whiteSpace=wrap;html=1;left=0;right=0;fillColor=none;rounded=0;strokeColor=default;fontFamily=Helvetica;fontSize=12;fontColor=default;" parent="1" vertex="1">
          <mxGeometry x="277.88" y="72" width="132.25" height="24" as="geometry" />
        </mxCell>
        <mxCell id="hderS7r2cAIFAvsGlZWt-31" style="edgeStyle=orthogonalEdgeStyle;rounded=0;orthogonalLoop=1;jettySize=auto;html=1;exitX=1;exitY=0.5;exitDx=0;exitDy=0;entryX=0;entryY=0.5;entryDx=0;entryDy=0;" parent="1" source="hderS7r2cAIFAvsGlZWt-28" target="hderS7r2cAIFAvsGlZWt-30" edge="1">
          <mxGeometry relative="1" as="geometry">
            <Array as="points">
              <mxPoint x="268" y="168" />
              <mxPoint x="268" y="199" />
            </Array>
          </mxGeometry>
        </mxCell>
        <mxCell id="hderS7r2cAIFAvsGlZWt-28" value="Like button" style="rounded=0;whiteSpace=wrap;html=1;" parent="1" vertex="1">
          <mxGeometry x="62" y="145" width="89" height="45" as="geometry" />
        </mxCell>
        <mxCell id="hderS7r2cAIFAvsGlZWt-32" style="edgeStyle=orthogonalEdgeStyle;rounded=0;orthogonalLoop=1;jettySize=auto;html=1;exitX=1;exitY=0.5;exitDx=0;exitDy=0;entryX=0;entryY=0.5;entryDx=0;entryDy=0;" parent="1" source="hderS7r2cAIFAvsGlZWt-29" target="hderS7r2cAIFAvsGlZWt-30" edge="1">
          <mxGeometry relative="1" as="geometry">
            <Array as="points">
              <mxPoint x="268" y="229" />
              <mxPoint x="268" y="199" />
            </Array>
          </mxGeometry>
        </mxCell>
        <mxCell id="hderS7r2cAIFAvsGlZWt-29" value="Dislike button" style="rounded=0;whiteSpace=wrap;html=1;" parent="1" vertex="1">
          <mxGeometry x="62" y="206" width="89" height="45" as="geometry" />
        </mxCell>
        <mxCell id="hderS7r2cAIFAvsGlZWt-42" style="edgeStyle=orthogonalEdgeStyle;rounded=0;orthogonalLoop=1;jettySize=auto;html=1;exitX=1;exitY=0.5;exitDx=0;exitDy=0;entryX=0;entryY=0;entryDx=0;entryDy=48.75;entryPerimeter=0;" parent="1" source="hderS7r2cAIFAvsGlZWt-30" target="hderS7r2cAIFAvsGlZWt-40" edge="1">
          <mxGeometry relative="1" as="geometry" />
        </mxCell>
        <mxCell id="oqM5t_CYiPmyMkyuLxZC-28" style="edgeStyle=orthogonalEdgeStyle;rounded=0;orthogonalLoop=1;jettySize=auto;html=1;exitX=1;exitY=0;exitDx=0;exitDy=0;entryX=0.713;entryY=0.994;entryDx=0;entryDy=0;entryPerimeter=0;" edge="1" parent="1" source="hderS7r2cAIFAvsGlZWt-30" target="22">
          <mxGeometry relative="1" as="geometry">
            <mxPoint x="372" y="117" as="targetPoint" />
            <Array as="points" />
          </mxGeometry>
        </mxCell>
        <mxCell id="hderS7r2cAIFAvsGlZWt-30" value="Rating system" style="ellipse;whiteSpace=wrap;html=1;aspect=fixed;" parent="1" vertex="1">
          <mxGeometry x="304" y="159" width="80" height="80" as="geometry" />
        </mxCell>
        <mxCell id="hderS7r2cAIFAvsGlZWt-35" value="number of like + 1,&lt;br&gt;&lt;div style=&quot;text-align: left;&quot;&gt;buzz id&lt;/div&gt;" style="text;html=1;align=center;verticalAlign=middle;resizable=0;points=[];autosize=1;strokeColor=none;fillColor=none;" parent="1" vertex="1">
          <mxGeometry x="151" y="147.5" width="117" height="40" as="geometry" />
        </mxCell>
        <mxCell id="hderS7r2cAIFAvsGlZWt-37" value="&lt;div style=&quot;text-align: left;&quot;&gt;buzz id,&lt;/div&gt;&lt;div style=&quot;text-align: left;&quot;&gt;number of like - 1&lt;/div&gt;" style="text;html=1;align=center;verticalAlign=middle;resizable=0;points=[];autosize=1;strokeColor=none;fillColor=none;" parent="1" vertex="1">
          <mxGeometry x="153" y="208.5" width="111" height="40" as="geometry" />
        </mxCell>
        <mxCell id="hderS7r2cAIFAvsGlZWt-39" value="&lt;span style=&quot;caret-color: rgb(0, 0, 0); color: rgb(0, 0, 0); font-family: Helvetica; font-size: 12px; font-style: normal; font-variant-caps: normal; font-weight: 400; letter-spacing: normal; text-align: center; text-indent: 0px; text-transform: none; word-spacing: 0px; -webkit-text-stroke-width: 0px; background-color: rgb(251, 251, 251); text-decoration: none; float: none; display: inline !important;&quot;&gt;number of like&lt;/span&gt;" style="text;html=1;align=center;verticalAlign=middle;resizable=0;points=[];autosize=1;strokeColor=none;fillColor=none;" parent="1" vertex="1">
          <mxGeometry x="367" y="119" width="93" height="26" as="geometry" />
        </mxCell>
        <mxCell id="hderS7r2cAIFAvsGlZWt-40" value="Refreshed &amp;nbsp;page" style="shape=card;whiteSpace=wrap;html=1;" parent="1" vertex="1">
          <mxGeometry x="466" y="150" width="100" height="67.5" as="geometry" />
        </mxCell>
        <mxCell id="oqM5t_CYiPmyMkyuLxZC-24" style="edgeStyle=orthogonalEdgeStyle;rounded=0;orthogonalLoop=1;jettySize=auto;html=1;exitX=1;exitY=0.5;exitDx=0;exitDy=0;entryX=0.5;entryY=1;entryDx=0;entryDy=0;" edge="1" parent="1" source="oqM5t_CYiPmyMkyuLxZC-22" target="hderS7r2cAIFAvsGlZWt-30">
          <mxGeometry relative="1" as="geometry" />
        </mxCell>
        <mxCell id="oqM5t_CYiPmyMkyuLxZC-22" value="Browser" style="shape=partialRectangle;whiteSpace=wrap;html=1;left=0;right=0;fillColor=none;rounded=0;strokeColor=default;fontFamily=Helvetica;fontSize=12;fontColor=default;" vertex="1" parent="1">
          <mxGeometry x="87.88" y="273" width="63.12" height="24" as="geometry" />
        </mxCell>
        <mxCell id="oqM5t_CYiPmyMkyuLxZC-25" value="decoded current user id" style="text;html=1;align=center;verticalAlign=middle;resizable=0;points=[];autosize=1;strokeColor=none;fillColor=none;" vertex="1" parent="1">
          <mxGeometry x="199" y="264" width="144" height="26" as="geometry" />
        </mxCell>
        <mxCell id="oqM5t_CYiPmyMkyuLxZC-29" value="list of user id whose&lt;br&gt;liked/disliked the buzz" style="text;html=1;align=center;verticalAlign=middle;resizable=0;points=[];autosize=1;strokeColor=none;fillColor=none;" vertex="1" parent="1">
          <mxGeometry x="187" y="96" width="135" height="40" as="geometry" />
        </mxCell>
      </root>
    </mxGraphModel>
  </diagram>
</mxfile>
